<svg width="277" height="78" viewBox="0 0 277 78" fill="none" xmlns="http://www.w3.org/2000/svg">
<path d="M55.3334 32V15.3307C55.3335 15.1202 55.2922 14.9118 55.2116 14.7173C55.1311 14.5228 55.013 14.3461 54.864 14.1974L46.4694 5.80271C46.1696 5.50256 45.7629 5.33375 45.3387 5.33337H14.2667C13.8423 5.33337 13.4354 5.50195 13.1353 5.802C12.8353 6.10206 12.6667 6.50903 12.6667 6.93337V57.0667C12.6667 57.491 12.8353 57.898 13.1353 58.1981C13.4354 58.4981 13.8423 58.6667 14.2667 58.6667H31.3334M23.3334 26.6667H44.6667M23.3334 16H34M23.3334 37.3334H31.3334M56.6667 54.6667L60.6667 58.6667" stroke="#D3D3D3" stroke-width="5" stroke-linecap="round" stroke-linejoin="round"/>
<path d="M44.6667 5.33337V14.4C44.6667 14.8244 44.8352 15.2314 45.1353 15.5314C45.4354 15.8315 45.8423 16 46.2667 16H55.3333M42 48C42 50.1218 42.8429 52.1566 44.3431 53.6569C45.8434 55.1572 47.8783 56 50 56C52.1217 56 54.1566 55.1572 55.6569 53.6569C57.1571 52.1566 58 50.1218 58 48C58 45.8783 57.1571 43.8435 55.6569 42.3432C54.1566 40.8429 52.1217 40 50 40C47.8783 40 45.8434 40.8429 44.3431 42.3432C42.8429 43.8435 42 45.8783 42 48Z" stroke="#D3D3D3" stroke-width="5" stroke-linecap="round" stroke-linejoin="round"/>
<g filter="url(#filter0_d_16_5)">
<path d="M54.6243 49L61.4883 33.6H65.0083L71.8943 49H68.1543L62.5223 35.404H63.9303L58.2763 49H54.6243ZM58.0563 45.7L59.0023 42.994H66.9223L67.8903 45.7H58.0563ZM77.5704 49V33.6H80.5184L89.6044 44.688H88.1744V33.6H91.6944V49H88.7684L79.6604 37.912H81.0904V49H77.5704ZM97.3924 49L104.256 33.6H107.776L114.662 49H110.922L105.29 35.404H106.698L101.044 49H97.3924ZM100.824 45.7L101.77 42.994H109.69L110.658 45.7H100.824ZM120.338 49V33.6H123.902V46.096H131.624V49H120.338ZM139.932 49V42.708L140.746 44.864L133.97 33.6H137.754L142.946 42.246H140.768L145.982 33.6H149.48L142.704 44.864L143.496 42.708V49H139.932ZM154.06 49V46.69L163.586 35.206L164.026 36.504H154.236V33.6H167.194V35.91L157.69 47.394L157.25 46.096H167.524V49H154.06ZM173.888 49V33.6H177.452V49H173.888ZM185.185 49V33.6H188.133L197.219 44.688H195.789V33.6H199.309V49H196.383L187.275 37.912H188.705V49H185.185ZM214.467 49.264C213.25 49.264 212.128 49.0733 211.101 48.692C210.089 48.296 209.202 47.7387 208.439 47.02C207.691 46.3013 207.104 45.458 206.679 44.49C206.268 43.522 206.063 42.4587 206.063 41.3C206.063 40.1413 206.268 39.078 206.679 38.11C207.104 37.142 207.698 36.2987 208.461 35.58C209.224 34.8613 210.118 34.3113 211.145 33.93C212.172 33.534 213.301 33.336 214.533 33.336C215.897 33.336 217.122 33.5633 218.207 34.018C219.307 34.4727 220.231 35.1327 220.979 35.998L218.691 38.11C218.134 37.5233 217.525 37.0907 216.865 36.812C216.205 36.5187 215.486 36.372 214.709 36.372C213.961 36.372 213.279 36.4893 212.663 36.724C212.047 36.9587 211.512 37.296 211.057 37.736C210.617 38.176 210.272 38.6967 210.023 39.298C209.788 39.8993 209.671 40.5667 209.671 41.3C209.671 42.0187 209.788 42.6787 210.023 43.28C210.272 43.8813 210.617 44.4093 211.057 44.864C211.512 45.304 212.04 45.6413 212.641 45.876C213.257 46.1107 213.932 46.228 214.665 46.228C215.369 46.228 216.051 46.118 216.711 45.898C217.386 45.6633 218.038 45.2747 218.669 44.732L220.693 47.306C219.857 47.9367 218.882 48.4207 217.767 48.758C216.667 49.0953 215.567 49.264 214.467 49.264ZM217.437 46.844V41.058H220.693V47.306L217.437 46.844Z" fill="#252525"/>
</g>
<defs>
<filter id="filter0_d_16_5" x="50.6243" y="29.3359" width="174.355" height="23.9281" filterUnits="userSpaceOnUse" color-interpolation-filters="sRGB">
<feFlood flood-opacity="0" result="BackgroundImageFix"/>
<feColorMatrix in="SourceAlpha" type="matrix" values="0 0 0 0 0 0 0 0 0 0 0 0 0 0 0 0 0 0 127 0" result="hardAlpha"/>
<feOffset/>
<feGaussianBlur stdDeviation="2"/>
<feComposite in2="hardAlpha" operator="out"/>
<feColorMatrix type="matrix" values="0 0 0 0 0 0 0 0 0 0 0 0 0 0 0 0 0 0 0.25 0"/>
<feBlend mode="normal" in2="BackgroundImageFix" result="effect1_dropShadow_16_5"/>
<feBlend mode="normal" in="SourceGraphic" in2="effect1_dropShadow_16_5" result="shape"/>
</filter>
</defs>
</svg>
