<svg width="240" height="180" viewBox="0 0 240 180" fill="none" xmlns="http://www.w3.org/2000/svg">
<path d="M163.156 23.9844L125.422 2.26562C124.797 1.875 123.938 1.71875 123 1.71875C122.062 1.71875 121.203 1.95313 120.578 2.26562L83.0781 24.0625C81.75 24.8437 80.8125 26.7969 80.8125 28.2812V71.7969C80.8125 72.6562 80.9687 73.6719 81.5938 74.5312L165.031 26.0937C164.562 25.1562 163.859 24.4531 163.156 23.9844Z" fill="#9B4F96"/>
<path d="M81.3594 74.4531C81.75 75.0781 82.2969 75.625 82.8438 75.9375L120.5 97.7344C121.125 98.125 121.984 98.2812 122.922 98.2812C123.859 98.2812 124.719 98.0469 125.344 97.7344L162.844 75.9375C164.172 75.1562 165.109 73.2031 165.109 71.7188V28.2031C165.109 27.5 165.031 26.7188 164.641 26.0156L81.3594 74.4531Z" fill="#68217A"/>
<path d="M139.641 59.4531C136.359 65.2344 130.109 69.1406 123 69.1406C112.453 69.1406 103.859 60.5469 103.859 50C103.859 39.4531 112.453 30.8594 123 30.8594C130.109 30.8594 136.359 34.7656 139.641 40.625L149.797 34.7656C144.484 25.4688 134.484 19.1406 123 19.1406C105.969 19.1406 92.1406 32.9688 92.1406 50C92.1406 67.0312 105.969 80.8594 123 80.8594C134.406 80.8594 144.406 74.6094 149.719 65.3906L139.641 59.4531ZM148.781 51.7187L149.484 48.3594H146.203V44.6875H150.188L151.125 39.8438H154.953L154.016 44.6094H156.984L157.922 39.8438H161.672L160.734 44.6094H162.609V48.2812H160.031L159.328 51.6406H162.609V55.3125H158.625L157.688 60H153.859L154.797 55.3125H151.828L150.891 60H147.141L148.078 55.3125H146.203V51.6406H148.781V51.7187ZM152.531 51.7187H155.5L156.203 48.3594H153.234L152.531 51.7187Z" fill="white"/>
<path d="M111.427 163.144C110.163 163.144 108.995 162.936 107.923 162.52C106.851 162.088 105.923 161.488 105.139 160.72C104.355 159.952 103.739 159.048 103.291 158.008C102.859 156.968 102.643 155.832 102.643 154.6C102.643 153.368 102.859 152.232 103.291 151.192C103.739 150.152 104.355 149.248 105.139 148.48C105.939 147.712 106.875 147.12 107.947 146.704C109.019 146.272 110.187 146.056 111.451 146.056C112.667 146.056 113.811 146.264 114.883 146.68C115.955 147.08 116.859 147.688 117.595 148.504L116.467 149.632C115.779 148.928 115.019 148.424 114.187 148.12C113.355 147.8 112.459 147.64 111.499 147.64C110.491 147.64 109.555 147.816 108.691 148.168C107.827 148.504 107.075 148.992 106.435 149.632C105.795 150.256 105.291 150.992 104.923 151.84C104.571 152.672 104.395 153.592 104.395 154.6C104.395 155.608 104.571 156.536 104.923 157.384C105.291 158.216 105.795 158.952 106.435 159.592C107.075 160.216 107.827 160.704 108.691 161.056C109.555 161.392 110.491 161.56 111.499 161.56C112.459 161.56 113.355 161.4 114.187 161.08C115.019 160.76 115.779 160.248 116.467 159.544L117.595 160.672C116.859 161.488 115.955 162.104 114.883 162.52C113.811 162.936 112.659 163.144 111.427 163.144ZM131.686 163L133.75 146.2H135.046L132.982 163H131.686ZM122.59 158.44V157.12H137.11V158.44H122.59ZM125.446 163L127.51 146.2H128.83L126.742 163H125.446ZM123.358 152.08V150.76H137.878V152.08H123.358Z" fill="#252525"/>
</svg>
