<svg width="240" height="169" viewBox="0 0 240 169" fill="none" xmlns="http://www.w3.org/2000/svg">
<path d="M78 0L85.6628 90L120.07 100L154.465 90.0063L162.14 0H78Z" fill="#2196F3"/>
<path d="M145.756 29.4311L144.789 40.7374L141.868 74.6311L120.07 80.8999L120.052 80.9061L98.2653 74.6311L96.7448 56.9061H107.419L108.212 66.0999L120.058 69.4249L120.064 69.4186L131.927 66.0936L133.544 50.7749L96.2339 50.8811L95.1762 40.4061L134.44 39.9249L135.233 28.7124L94.1244 28.8311L93.4333 18.3999H120.07H146.706L145.756 29.4311Z" fill="#FAFAFA"/>
<path d="M95.1115 152.144C93.8475 152.144 92.6795 151.936 91.6075 151.52C90.5355 151.088 89.6075 150.488 88.8235 149.72C88.0395 148.952 87.4235 148.048 86.9755 147.008C86.5435 145.968 86.3275 144.832 86.3275 143.6C86.3275 142.368 86.5435 141.232 86.9755 140.192C87.4235 139.152 88.0395 138.248 88.8235 137.48C89.6235 136.712 90.5595 136.12 91.6315 135.704C92.7035 135.272 93.8715 135.056 95.1355 135.056C96.3515 135.056 97.4955 135.264 98.5675 135.68C99.6395 136.08 100.543 136.688 101.279 137.504L100.151 138.632C99.4635 137.928 98.7035 137.424 97.8715 137.12C97.0395 136.8 96.1435 136.64 95.1835 136.64C94.1755 136.64 93.2395 136.816 92.3755 137.168C91.5115 137.504 90.7595 137.992 90.1195 138.632C89.4795 139.256 88.9755 139.992 88.6075 140.84C88.2555 141.672 88.0795 142.592 88.0795 143.6C88.0795 144.608 88.2555 145.536 88.6075 146.384C88.9755 147.216 89.4795 147.952 90.1195 148.592C90.7595 149.216 91.5115 149.704 92.3755 150.056C93.2395 150.392 94.1755 150.56 95.1835 150.56C96.1435 150.56 97.0395 150.4 97.8715 150.08C98.7035 149.76 99.4635 149.248 100.151 148.544L101.279 149.672C100.543 150.488 99.6395 151.104 98.5675 151.52C97.4955 151.936 96.3435 152.144 95.1115 152.144ZM112.9 152.144C111.652 152.144 110.452 151.944 109.3 151.544C108.164 151.128 107.284 150.6 106.66 149.96L107.356 148.592C107.948 149.168 108.74 149.656 109.732 150.056C110.74 150.44 111.796 150.632 112.9 150.632C113.956 150.632 114.812 150.504 115.468 150.248C116.14 149.976 116.628 149.616 116.932 149.168C117.252 148.72 117.412 148.224 117.412 147.68C117.412 147.024 117.22 146.496 116.836 146.096C116.468 145.696 115.98 145.384 115.372 145.16C114.764 144.92 114.092 144.712 113.356 144.536C112.62 144.36 111.884 144.176 111.148 143.984C110.412 143.776 109.732 143.504 109.108 143.168C108.5 142.832 108.004 142.392 107.62 141.848C107.252 141.288 107.068 140.56 107.068 139.664C107.068 138.832 107.284 138.072 107.716 137.384C108.164 136.68 108.844 136.12 109.756 135.704C110.668 135.272 111.836 135.056 113.26 135.056C114.204 135.056 115.14 135.192 116.068 135.464C116.996 135.72 117.796 136.08 118.468 136.544L117.868 137.96C117.148 137.48 116.38 137.128 115.564 136.904C114.764 136.68 113.988 136.568 113.236 136.568C112.228 136.568 111.396 136.704 110.74 136.976C110.084 137.248 109.596 137.616 109.276 138.08C108.972 138.528 108.82 139.04 108.82 139.616C108.82 140.272 109.004 140.8 109.372 141.2C109.756 141.6 110.252 141.912 110.86 142.136C111.484 142.36 112.164 142.56 112.9 142.736C113.636 142.912 114.364 143.104 115.084 143.312C115.82 143.52 116.492 143.792 117.1 144.128C117.724 144.448 118.22 144.88 118.588 145.424C118.972 145.968 119.164 146.68 119.164 147.56C119.164 148.376 118.94 149.136 118.492 149.84C118.044 150.528 117.356 151.088 116.428 151.52C115.516 151.936 114.34 152.144 112.9 152.144ZM130.914 152.144C129.666 152.144 128.466 151.944 127.314 151.544C126.178 151.128 125.298 150.6 124.674 149.96L125.37 148.592C125.962 149.168 126.754 149.656 127.746 150.056C128.754 150.44 129.81 150.632 130.914 150.632C131.97 150.632 132.826 150.504 133.482 150.248C134.154 149.976 134.642 149.616 134.946 149.168C135.266 148.72 135.426 148.224 135.426 147.68C135.426 147.024 135.234 146.496 134.85 146.096C134.482 145.696 133.994 145.384 133.386 145.16C132.778 144.92 132.106 144.712 131.37 144.536C130.634 144.36 129.898 144.176 129.162 143.984C128.426 143.776 127.746 143.504 127.122 143.168C126.514 142.832 126.018 142.392 125.634 141.848C125.266 141.288 125.082 140.56 125.082 139.664C125.082 138.832 125.298 138.072 125.73 137.384C126.178 136.68 126.858 136.12 127.77 135.704C128.682 135.272 129.85 135.056 131.274 135.056C132.218 135.056 133.154 135.192 134.082 135.464C135.01 135.72 135.81 136.08 136.482 136.544L135.882 137.96C135.162 137.48 134.394 137.128 133.578 136.904C132.778 136.68 132.002 136.568 131.25 136.568C130.242 136.568 129.41 136.704 128.754 136.976C128.098 137.248 127.61 137.616 127.29 138.08C126.986 138.528 126.834 139.04 126.834 139.616C126.834 140.272 127.018 140.8 127.386 141.2C127.77 141.6 128.266 141.912 128.874 142.136C129.498 142.36 130.178 142.56 130.914 142.736C131.65 142.912 132.378 143.104 133.098 143.312C133.834 143.52 134.506 143.792 135.114 144.128C135.738 144.448 136.234 144.88 136.602 145.424C136.986 145.968 137.178 146.68 137.178 147.56C137.178 148.376 136.954 149.136 136.506 149.84C136.058 150.528 135.37 151.088 134.442 151.52C133.53 151.936 132.354 152.144 130.914 152.144ZM147.638 152.144C146.422 152.144 145.27 151.952 144.182 151.568C143.11 151.168 142.246 150.64 141.59 149.984L142.43 148.616C142.974 149.176 143.702 149.64 144.614 150.008C145.542 150.376 146.55 150.56 147.638 150.56C149.03 150.56 150.094 150.256 150.83 149.648C151.582 149.04 151.958 148.224 151.958 147.2C151.958 146.176 151.59 145.36 150.854 144.752C150.134 144.144 148.99 143.84 147.422 143.84H146.222V142.568L151.406 136.064L151.646 136.736H142.286V135.2H153.086V136.424L147.902 142.928L147.062 142.376H147.71C149.726 142.376 151.23 142.824 152.222 143.72C153.23 144.616 153.734 145.768 153.734 147.176C153.734 148.12 153.51 148.968 153.062 149.72C152.614 150.472 151.934 151.064 151.022 151.496C150.126 151.928 148.998 152.144 147.638 152.144Z" fill="#252525"/>
</svg>
