<svg width="240" height="169" viewBox="0 0 240 169" fill="none" xmlns="http://www.w3.org/2000/svg">
<g clip-path="url(#clip0_17_11)">
<path d="M98.3754 100C107.963 100 115.745 92.5335 115.745 83.3335V66.6668H98.3754C88.7874 66.6668 81.0059 74.1335 81.0059 83.3335C81.0059 92.5335 88.7874 100 98.3754 100Z" fill="#0ACF83"/>
<path d="M81.0059 49.9999C81.0059 40.7999 88.7874 33.3332 98.3754 33.3332H115.745V66.6665H98.3754C88.7874 66.6665 81.0059 59.1999 81.0059 49.9999Z" fill="#A259FF"/>
<path d="M81.0039 16.6667C81.0039 7.46667 88.7854 0 98.3733 0H115.743V33.3333H98.3733C88.7854 33.3333 81.0039 25.8667 81.0039 16.6667Z" fill="#F24E1E"/>
<path d="M115.746 0H133.115C142.703 0 150.485 7.46667 150.485 16.6667C150.485 25.8667 142.703 33.3333 133.115 33.3333H115.746V0Z" fill="#FF7262"/>
<path d="M150.485 49.9999C150.485 59.1999 142.703 66.6665 133.115 66.6665C123.527 66.6665 115.746 59.1999 115.746 49.9999C115.746 40.7999 123.527 33.3332 133.115 33.3332C142.703 33.3332 150.485 40.7999 150.485 49.9999Z" fill="#1ABCFE"/>
</g>
<path d="M77.2632 143.336H86.1432V144.872H77.2632V143.336ZM77.4552 152H75.6792V135.2H87.1992V136.736H77.4552V152ZM94.1158 152V135.2H95.8918V152H94.1158ZM111.975 152.144C110.695 152.144 109.511 151.936 108.423 151.52C107.351 151.088 106.415 150.488 105.615 149.72C104.831 148.952 104.215 148.048 103.767 147.008C103.335 145.968 103.119 144.832 103.119 143.6C103.119 142.368 103.335 141.232 103.767 140.192C104.215 139.152 104.839 138.248 105.639 137.48C106.439 136.712 107.375 136.12 108.447 135.704C109.535 135.272 110.719 135.056 111.999 135.056C113.279 135.056 114.447 135.256 115.503 135.656C116.575 136.056 117.487 136.664 118.239 137.48L117.135 138.608C116.431 137.904 115.655 137.4 114.807 137.096C113.959 136.792 113.047 136.64 112.071 136.64C111.031 136.64 110.071 136.816 109.191 137.168C108.327 137.504 107.567 137.992 106.911 138.632C106.271 139.256 105.767 139.992 105.399 140.84C105.047 141.672 104.871 142.592 104.871 143.6C104.871 144.592 105.047 145.512 105.399 146.36C105.767 147.208 106.271 147.952 106.911 148.592C107.567 149.216 108.327 149.704 109.191 150.056C110.071 150.392 111.023 150.56 112.047 150.56C113.007 150.56 113.911 150.416 114.759 150.128C115.623 149.84 116.415 149.352 117.135 148.664L118.143 150.008C117.343 150.712 116.407 151.248 115.335 151.616C114.263 151.968 113.143 152.144 111.975 152.144ZM116.439 149.792V143.6H118.143V150.008L116.439 149.792ZM126.419 152V135.2H127.883L135.563 148.304H134.795L142.403 135.2H143.867V152H142.163V137.864H142.571L135.563 149.864H134.723L127.667 137.864H128.123V152H126.419ZM149.902 152L157.582 135.2H159.334L167.014 152H165.142L158.086 136.232H158.806L151.75 152H149.902ZM152.926 147.512L153.454 146.072H163.222L163.75 147.512H152.926Z" fill="#252525"/>
<defs>
<clipPath id="clip0_17_11">
<rect width="69.4915" height="100" fill="white" transform="translate(81)"/>
</clipPath>
</defs>
</svg>
