<svg width="30" height="30" viewBox="0 0 30 30" fill="none" xmlns="http://www.w3.org/2000/svg">
<path d="M15.0017 1.25504e-06C6.71322 -0.00335033 0 6.70652 0 14.9883C0 21.5373 4.19953 27.1043 10.048 29.1487C10.8357 29.3465 10.715 28.7868 10.715 28.4047V25.8072C6.16691 26.3401 5.98257 23.3304 5.67758 22.8276C5.06089 21.7752 3.60295 21.5071 4.03866 21.0044C5.07429 20.4715 6.13004 21.1384 7.35337 22.9449C8.23819 24.2554 9.96425 24.0342 10.839 23.8164C11.0301 23.0287 11.4389 22.3249 12.002 21.7786C7.28969 20.934 5.32566 18.0583 5.32566 14.6397C5.32566 12.9807 5.87197 11.4557 6.94448 10.2257C6.26075 8.19797 7.00816 6.46185 7.1087 6.20378C9.05597 6.0295 11.0803 7.59804 11.2379 7.72205C12.3439 7.42376 13.6074 7.26623 15.0218 7.26623C16.4429 7.26623 17.7098 7.43046 18.8258 7.7321C19.2046 7.44387 21.0814 6.09653 22.8913 6.26076C22.9885 6.51883 23.7191 8.21473 23.0756 10.2156C24.1615 11.449 24.7146 12.9874 24.7146 14.6498C24.7146 18.0751 22.7371 20.9541 18.0114 21.7853C18.4162 22.1834 18.7376 22.6581 18.9568 23.1818C19.1761 23.7054 19.2888 24.2675 19.2883 24.8352V28.6058C19.3152 28.9074 19.2883 29.2057 19.7911 29.2057C25.7267 27.2048 30 21.5976 30 14.9916C30 6.70652 23.2834 1.25504e-06 15.0017 1.25504e-06V1.25504e-06Z" fill="white"/>
</svg>
