<svg width="240" height="187" viewBox="0 0 240 187" fill="none" xmlns="http://www.w3.org/2000/svg">
<path d="M120 8.33334C114.528 8.33334 109.11 9.41108 104.055 11.505C98.9996 13.599 94.4063 16.6681 90.5372 20.5372C82.7232 28.3512 78.3333 38.9493 78.3333 50C78.3333 68.4167 90.2916 84.0417 106.833 89.5833C108.917 89.9167 109.583 88.625 109.583 87.5V80.4583C98.0416 82.9583 95.5833 74.875 95.5833 74.875C93.6666 70.0417 90.9583 68.75 90.9583 68.75C87.1666 66.1667 91.25 66.25 91.25 66.25C95.4166 66.5417 97.625 70.5417 97.625 70.5417C101.25 76.875 107.375 75 109.75 74C110.125 71.2917 111.208 69.4583 112.375 68.4167C103.125 67.375 93.4166 63.7917 93.4166 47.9167C93.4166 43.2917 95 39.5833 97.7083 36.625C97.2916 35.5833 95.8333 31.25 98.125 25.625C98.125 25.625 101.625 24.5 109.583 29.875C112.875 28.9583 116.458 28.5 120 28.5C123.542 28.5 127.125 28.9583 130.417 29.875C138.375 24.5 141.875 25.625 141.875 25.625C144.167 31.25 142.708 35.5833 142.292 36.625C145 39.5833 146.583 43.2917 146.583 47.9167C146.583 63.8333 136.833 67.3333 127.542 68.375C129.042 69.6667 130.417 72.2083 130.417 76.0833V87.5C130.417 88.625 131.083 89.9583 133.208 89.5833C149.75 84 161.667 68.4167 161.667 50C161.667 44.5283 160.589 39.1101 158.495 34.0549C156.401 28.9996 153.332 24.4063 149.463 20.5372C145.594 16.6681 141 13.599 135.945 11.505C130.89 9.41108 125.472 8.33334 120 8.33334Z" fill="black"/>
<path d="M73.8757 170.144C72.5957 170.144 71.4117 169.936 70.3237 169.52C69.2517 169.088 68.3157 168.488 67.5157 167.72C66.7317 166.952 66.1157 166.048 65.6677 165.008C65.2357 163.968 65.0197 162.832 65.0197 161.6C65.0197 160.368 65.2357 159.232 65.6677 158.192C66.1157 157.152 66.7397 156.248 67.5397 155.48C68.3397 154.712 69.2757 154.12 70.3477 153.704C71.4357 153.272 72.6197 153.056 73.8997 153.056C75.1797 153.056 76.3477 153.256 77.4037 153.656C78.4757 154.056 79.3877 154.664 80.1397 155.48L79.0357 156.608C78.3317 155.904 77.5557 155.4 76.7077 155.096C75.8597 154.792 74.9477 154.64 73.9717 154.64C72.9317 154.64 71.9717 154.816 71.0917 155.168C70.2277 155.504 69.4677 155.992 68.8117 156.632C68.1717 157.256 67.6677 157.992 67.2997 158.84C66.9477 159.672 66.7717 160.592 66.7717 161.6C66.7717 162.592 66.9477 163.512 67.2997 164.36C67.6677 165.208 68.1717 165.952 68.8117 166.592C69.4677 167.216 70.2277 167.704 71.0917 168.056C71.9717 168.392 72.9237 168.56 73.9477 168.56C74.9077 168.56 75.8117 168.416 76.6597 168.128C77.5237 167.84 78.3157 167.352 79.0357 166.664L80.0437 168.008C79.2437 168.712 78.3077 169.248 77.2357 169.616C76.1637 169.968 75.0437 170.144 73.8757 170.144ZM78.3397 167.792V161.6H80.0437V168.008L78.3397 167.792ZM88.3194 170V153.2H90.0954V170H88.3194ZM102.075 170V154.736H96.1707V153.2H109.755V154.736H103.851V170H102.075ZM128.129 153.2H129.881V170H128.129V153.2ZM117.617 170H115.841V153.2H117.617V170ZM128.297 162.248H117.425V160.688H128.297V162.248ZM145.382 170.144C143.238 170.144 141.55 169.528 140.318 168.296C139.086 167.064 138.47 165.24 138.47 162.824V153.2H140.246V162.752C140.246 164.736 140.694 166.2 141.59 167.144C142.486 168.088 143.75 168.56 145.382 168.56C147.03 168.56 148.302 168.088 149.198 167.144C150.094 166.2 150.542 164.736 150.542 162.752V153.2H152.27V162.824C152.27 165.24 151.654 167.064 150.422 168.296C149.206 169.528 147.526 170.144 145.382 170.144ZM160.871 170V153.2H168.119C169.991 153.2 171.439 153.576 172.463 154.328C173.503 155.08 174.023 156.144 174.023 157.52C174.023 158.432 173.807 159.2 173.375 159.824C172.959 160.448 172.383 160.92 171.647 161.24C170.927 161.56 170.135 161.72 169.271 161.72L169.679 161.144C170.751 161.144 171.671 161.312 172.439 161.648C173.223 161.968 173.831 162.456 174.263 163.112C174.695 163.752 174.911 164.552 174.911 165.512C174.911 166.936 174.383 168.04 173.327 168.824C172.287 169.608 170.711 170 168.599 170H160.871ZM162.647 168.536H168.575C170.047 168.536 171.175 168.288 171.959 167.792C172.743 167.28 173.135 166.472 173.135 165.368C173.135 164.28 172.743 163.488 171.959 162.992C171.175 162.48 170.047 162.224 168.575 162.224H162.455V160.76H167.999C169.343 160.76 170.383 160.504 171.119 159.992C171.871 159.48 172.247 158.72 172.247 157.712C172.247 156.688 171.871 155.928 171.119 155.432C170.383 154.92 169.343 154.664 167.999 154.664H162.647V168.536Z" fill="#252525"/>
</svg>
