<svg width="240" height="169" viewBox="0 0 240 169" fill="none" xmlns="http://www.w3.org/2000/svg">
<path d="M78 0L85.6691 90L120.105 100L154.529 90.0062L162.21 0H78Z" fill="#FF5722"/>
<path d="M145.579 29.4316H120.105H105.218L106.18 40.7379H120.105H144.616L141.723 74.6379L120.105 80.9066L120.087 80.9129L98.4811 74.6379L96.9714 56.9066H107.558L108.346 66.1066L120.093 69.4254L120.105 69.4191L131.864 66.1004L133.091 51.7816H120.105H96.5383L93.6872 18.4004H120.105H146.517L145.579 29.4316Z" fill="#FAFAFA"/>
<path d="M86.5492 135.2H88.3012V152H86.5492V135.2ZM76.0372 152H74.2612V135.2H76.0372V152ZM86.7172 144.248H75.8452V142.688H86.7172V144.248ZM100.298 152V136.736H94.3938V135.2H107.978V136.736H102.074V152H100.298ZM114.064 152V135.2H115.528L123.208 148.304H122.44L130.048 135.2H131.512V152H129.808V137.864H130.216L123.208 149.864H122.368L115.312 137.864H115.768V152H114.064ZM140.235 152V135.2H142.011V150.464H151.419V152H140.235ZM161.433 152.144C160.233 152.144 159.089 151.952 158.001 151.568C156.913 151.168 156.049 150.64 155.409 149.984L156.249 148.616C156.777 149.176 157.497 149.64 158.409 150.008C159.337 150.376 160.337 150.56 161.409 150.56C162.833 150.56 163.913 150.248 164.649 149.624C165.401 148.984 165.777 148.152 165.777 147.128C165.777 146.408 165.601 145.792 165.249 145.28C164.913 144.752 164.337 144.344 163.521 144.056C162.705 143.768 161.585 143.624 160.161 143.624H156.585L157.449 135.2H166.641V136.736H158.145L159.033 135.896L158.289 142.952L157.401 142.088H160.545C162.241 142.088 163.601 142.296 164.625 142.712C165.649 143.128 166.385 143.712 166.833 144.464C167.297 145.2 167.529 146.064 167.529 147.056C167.529 148 167.305 148.864 166.857 149.648C166.409 150.416 165.737 151.024 164.841 151.472C163.945 151.92 162.809 152.144 161.433 152.144Z" fill="#252525"/>
</svg>
