<svg width="69" height="64" viewBox="0 0 69 64" fill="none" xmlns="http://www.w3.org/2000/svg">
<g filter="url(#filter0_d_15_2)">
<rect x="4" width="61" height="56" fill="#C4C4C4"/>
</g>
<path d="M34 9C28.8349 9 28.1912 9.02494 26.1698 9.11045C24.1401 9.21021 22.7672 9.52494 21.5558 9.99525C20.288 10.4739 19.1397 11.2233 18.1912 12.1912C17.2206 13.1375 16.4708 14.2864 15.9952 15.5558C15.5249 16.7672 15.2102 18.1401 15.1105 20.1698C15.019 22.1924 15 22.8349 15 28C15 33.1651 15.0249 33.8088 15.1105 35.8302C15.2102 37.8539 15.5249 39.2328 15.9952 40.4442C16.4739 41.712 17.2233 42.8603 18.1912 43.8088C19.1375 44.7794 20.2864 45.5292 21.5558 46.0047C22.7672 46.4691 24.1461 46.7898 26.1698 46.8895C28.1924 46.981 28.8349 47 34 47C39.1651 47 39.8088 46.9751 41.8302 46.8895C43.8539 46.7898 45.2328 46.4679 46.4442 46.0047C47.712 45.5261 48.8603 44.7767 49.8088 43.8088C50.7807 42.8635 51.5307 41.7143 52.0048 40.4442C52.4691 39.2328 52.7898 37.8539 52.8895 35.8302C52.981 33.8076 53 33.1651 53 28C53 22.8349 52.9751 22.1912 52.8895 20.1698C52.7898 18.1461 52.4679 16.7601 52.0048 15.5558C51.5261 14.288 50.7767 13.1397 49.8088 12.1912C48.8635 11.2193 47.7144 10.4693 46.4442 9.99525C45.2328 9.52494 43.8539 9.21021 41.8302 9.11045C39.8076 9.019 39.1651 9 34 9ZM34 12.4204C39.0724 12.4204 39.6781 12.4454 41.6829 12.5309C43.5321 12.6176 44.5392 12.9264 45.2078 13.1876C46.0345 13.4928 46.7826 13.9784 47.3979 14.6093C48.0276 15.2219 48.5115 15.9683 48.8135 16.7933C49.0748 17.462 49.3836 18.4691 49.4703 20.3183C49.5558 22.323 49.5808 22.9299 49.5808 28.0012C49.5808 33.0724 49.5558 33.6793 49.4632 35.6841C49.3634 37.5333 49.0546 38.5404 48.7945 39.209C48.4347 40.101 48.0333 40.7245 47.3705 41.399C46.7533 42.0259 46.0056 42.5092 45.1805 42.8147C44.5202 43.076 43.4988 43.3848 41.6425 43.4715C39.6271 43.557 39.0333 43.5819 33.9477 43.5819C28.8622 43.5819 28.2696 43.557 26.2518 43.4644C24.4026 43.3646 23.3824 43.0558 22.7138 42.7957C21.8112 42.4359 21.1924 42.0344 20.5297 41.3717C19.861 40.7031 19.4359 40.0665 19.1081 39.1817C18.842 38.5214 18.538 37.5 18.4394 35.6437C18.3717 33.652 18.3397 33.0344 18.3397 27.9727C18.3397 22.9133 18.3717 22.2945 18.4394 20.2779C18.538 18.4216 18.842 17.4026 19.1081 16.7399C19.4359 15.8361 19.8622 15.2185 20.5297 14.5499C21.1912 13.8884 21.8112 13.4608 22.7138 13.1259C23.3824 12.8658 24.3777 12.557 26.234 12.4644C28.2494 12.3919 28.8432 12.3658 33.9216 12.3658L34 12.4204ZM34 18.2482C32.7189 18.2478 31.4503 18.4997 30.2667 18.9898C29.0831 19.4798 28.0076 20.1983 27.1017 21.1041C26.1959 22.01 25.4774 23.0854 24.9874 24.2691C24.4974 25.4527 24.2454 26.7213 24.2458 28.0024C24.2454 29.2834 24.4974 30.552 24.9874 31.7357C25.4774 32.9193 26.1959 33.9948 27.1017 34.9007C28.0076 35.8065 29.0831 36.525 30.2667 37.015C31.4503 37.505 32.7189 37.757 34 37.7565C35.2811 37.757 36.5497 37.505 37.7333 37.015C38.9169 36.525 39.9924 35.8065 40.8983 34.9007C41.8041 33.9948 42.5226 32.9193 43.0126 31.7357C43.5026 30.552 43.7546 29.2834 43.7542 28.0024C43.7546 26.7213 43.5026 25.4527 43.0126 24.2691C42.5226 23.0854 41.8041 22.01 40.8983 21.1041C39.9924 20.1983 38.9169 19.4798 37.7333 18.9898C36.5497 18.4997 35.2811 18.2478 34 18.2482ZM34 34.3361C30.4988 34.3361 27.6663 31.5036 27.6663 28.0024C27.6663 24.5012 30.4988 21.6686 34 21.6686C37.5012 21.6686 40.3337 24.5012 40.3337 28.0024C40.3337 31.5036 37.5012 34.3361 34 34.3361ZM46.4276 17.8587C46.4269 18.464 46.186 19.0443 45.7578 19.4721C45.3296 19.8998 44.749 20.1401 44.1437 20.1401C43.8444 20.1401 43.548 20.0812 43.2715 19.9667C42.995 19.8521 42.7438 19.6842 42.5321 19.4726C42.3205 19.261 42.1526 19.0097 42.0381 18.7332C41.9236 18.4567 41.8646 18.1603 41.8646 17.861C41.8646 17.5617 41.9236 17.2654 42.0381 16.9889C42.1526 16.7124 42.3205 16.4611 42.5321 16.2495C42.7438 16.0378 42.995 15.87 43.2715 15.7554C43.548 15.6409 43.8444 15.5819 44.1437 15.5819C45.3991 15.5819 46.4276 16.6033 46.4276 17.8587Z" fill="#252525" fill-opacity="0.9"/>
<defs>
<filter id="filter0_d_15_2" x="0" y="0" width="69" height="64" filterUnits="userSpaceOnUse" color-interpolation-filters="sRGB">
<feFlood flood-opacity="0" result="BackgroundImageFix"/>
<feColorMatrix in="SourceAlpha" type="matrix" values="0 0 0 0 0 0 0 0 0 0 0 0 0 0 0 0 0 0 127 0" result="hardAlpha"/>
<feOffset dy="4"/>
<feGaussianBlur stdDeviation="2"/>
<feColorMatrix type="matrix" values="0 0 0 0 0 0 0 0 0 0 0 0 0 0 0 0 0 0 0.25 0"/>
<feBlend mode="normal" in2="BackgroundImageFix" result="effect1_dropShadow_15_2"/>
<feBlend mode="normal" in="SourceGraphic" in2="effect1_dropShadow_15_2" result="shape"/>
</filter>
</defs>
</svg>
