<svg width="240" height="181" viewBox="0 0 240 181" fill="none" xmlns="http://www.w3.org/2000/svg">
<g clip-path="url(#clip0_17_20)">
<path d="M106.86 77.3043C106.86 77.3043 103.045 79.5225 109.574 80.2731C117.484 81.1754 121.527 81.0462 130.244 79.3962C130.244 79.3962 132.536 80.8332 135.736 82.078C116.195 90.4529 91.511 81.5928 106.86 77.3043ZM104.472 66.3754C104.472 66.3754 100.193 69.5425 106.727 70.2182C115.177 71.0899 121.85 71.1613 133.397 68.9379C133.397 68.9379 134.994 70.5569 137.505 71.4425C113.879 78.3511 87.5636 71.9873 104.472 66.3754Z" fill="#5382A1"/>
<path d="M124.602 47.8367C129.417 53.38 123.337 58.3685 123.337 58.3685C123.337 58.3685 135.562 52.0572 129.948 44.1537C124.704 36.7838 120.682 33.1214 142.453 20.4954C142.453 20.4954 108.28 29.0303 124.602 47.8367Z" fill="#E76F00"/>
<path d="M150.446 85.3878C150.446 85.3878 153.269 87.7136 147.337 89.513C136.058 92.93 100.392 93.9618 90.4835 89.6491C86.922 88.1 93.6012 85.9497 95.702 85.4983C97.8931 85.0231 99.1454 85.1118 99.1454 85.1118C95.1844 82.3214 73.5434 90.5907 88.1529 92.9587C127.995 99.4199 160.781 90.0494 150.446 85.3878ZM108.694 55.052C108.694 55.052 90.5517 59.3613 102.269 60.9257C107.217 61.5881 117.079 61.4384 126.266 60.6685C133.775 60.0355 141.314 58.6887 141.314 58.6887C141.314 58.6887 138.666 59.8225 136.751 61.1303C118.328 65.9757 82.7376 63.7217 92.9835 58.7653C101.649 54.5769 108.694 55.052 108.694 55.052ZM141.239 73.2433C159.967 63.5116 151.308 54.1595 145.264 55.4196C143.782 55.7277 143.122 55.9948 143.122 55.9948C143.122 55.9948 143.672 55.1335 144.722 54.7607C156.679 50.5569 165.875 67.1587 140.862 73.7338C140.862 73.7341 141.152 73.4751 141.239 73.2433Z" fill="#5382A1"/>
<path d="M129.948 0.107223C129.948 0.107223 140.32 10.4829 120.11 26.437C103.905 39.2353 116.415 46.5324 120.104 54.8697C110.644 46.335 103.702 38.8217 108.36 31.8292C115.195 21.5642 134.132 16.5879 129.948 0.107223Z" fill="#E76F00"/>
<path d="M110.534 99.6142C128.511 100.765 156.116 98.9757 156.769 90.4697C156.769 90.4697 155.513 93.6945 141.913 96.2552C126.569 99.1425 107.646 98.8055 96.4217 96.9549C96.422 96.9549 98.7191 98.8567 110.534 99.6142Z" fill="#5382A1"/>
</g>
<path d="M89.1115 164.144C88.1675 164.144 87.2795 163.936 86.4475 163.52C85.6315 163.104 84.9755 162.512 84.4795 161.744L85.5115 160.544C85.9755 161.216 86.5115 161.728 87.1195 162.08C87.7275 162.432 88.3995 162.608 89.1355 162.608C91.2155 162.608 92.2555 161.376 92.2555 158.912V148.736H86.1115V147.2H94.0075V158.84C94.0075 160.616 93.5915 161.944 92.7595 162.824C91.9435 163.704 90.7275 164.144 89.1115 164.144ZM99.5445 164L107.225 147.2H108.977L116.657 164H114.785L107.729 148.232H108.449L101.393 164H99.5445ZM102.569 159.512L103.097 158.072H112.865L113.393 159.512H102.569ZM126.594 164L119.154 147.2H121.074L128.034 163.016H126.978L133.986 147.2H135.786L128.346 164H126.594ZM138.269 164L145.949 147.2H147.701L155.381 164H153.509L146.453 148.232H147.173L140.117 164H138.269ZM141.293 159.512L141.821 158.072H151.589L152.117 159.512H141.293Z" fill="#252525"/>
<defs>
<clipPath id="clip0_17_20">
<rect width="73.9884" height="100" fill="white" transform="translate(83)"/>
</clipPath>
</defs>
</svg>
