<svg width="240" height="187" viewBox="0 0 240 187" fill="none" xmlns="http://www.w3.org/2000/svg">
<path d="M73.8511 170V153.2H75.3151L82.9951 166.304H82.2271L89.8351 153.2H91.2991V170H89.5951V155.864H90.0031L82.9951 167.864H82.1551L75.0991 155.864H75.5551V170H73.8511ZM99.758 174.776C99.166 174.776 98.598 174.68 98.054 174.488C97.526 174.296 97.07 174.008 96.686 173.624L97.478 172.352C97.798 172.656 98.142 172.888 98.51 173.048C98.894 173.224 99.318 173.312 99.782 173.312C100.342 173.312 100.822 173.152 101.222 172.832C101.638 172.528 102.03 171.984 102.398 171.2L103.214 169.352L103.406 169.088L108.59 157.4H110.27L103.958 171.512C103.606 172.328 103.214 172.976 102.782 173.456C102.366 173.936 101.91 174.272 101.414 174.464C100.918 174.672 100.366 174.776 99.758 174.776ZM103.118 170.36L97.31 157.4H99.086L104.222 168.968L103.118 170.36ZM120.723 170.144C119.475 170.144 118.275 169.944 117.123 169.544C115.987 169.128 115.107 168.6 114.483 167.96L115.179 166.592C115.771 167.168 116.563 167.656 117.555 168.056C118.563 168.44 119.619 168.632 120.723 168.632C121.779 168.632 122.635 168.504 123.291 168.248C123.963 167.976 124.451 167.616 124.755 167.168C125.075 166.72 125.235 166.224 125.235 165.68C125.235 165.024 125.043 164.496 124.659 164.096C124.291 163.696 123.803 163.384 123.195 163.16C122.587 162.92 121.915 162.712 121.179 162.536C120.443 162.36 119.707 162.176 118.971 161.984C118.235 161.776 117.555 161.504 116.931 161.168C116.323 160.832 115.827 160.392 115.443 159.848C115.075 159.288 114.891 158.56 114.891 157.664C114.891 156.832 115.107 156.072 115.539 155.384C115.987 154.68 116.667 154.12 117.579 153.704C118.491 153.272 119.659 153.056 121.083 153.056C122.027 153.056 122.963 153.192 123.891 153.464C124.819 153.72 125.619 154.08 126.291 154.544L125.691 155.96C124.971 155.48 124.203 155.128 123.387 154.904C122.587 154.68 121.811 154.568 121.059 154.568C120.051 154.568 119.219 154.704 118.563 154.976C117.907 155.248 117.419 155.616 117.099 156.08C116.795 156.528 116.643 157.04 116.643 157.616C116.643 158.272 116.827 158.8 117.195 159.2C117.579 159.6 118.075 159.912 118.683 160.136C119.307 160.36 119.987 160.56 120.723 160.736C121.459 160.912 122.187 161.104 122.907 161.312C123.643 161.52 124.315 161.792 124.923 162.128C125.547 162.448 126.043 162.88 126.411 163.424C126.795 163.968 126.987 164.68 126.987 165.56C126.987 166.376 126.763 167.136 126.315 167.84C125.867 168.528 125.179 169.088 124.251 169.52C123.339 169.936 122.163 170.144 120.723 170.144ZM141.45 170.144C140.186 170.144 139.01 169.936 137.922 169.52C136.85 169.088 135.914 168.488 135.114 167.72C134.33 166.936 133.714 166.032 133.266 165.008C132.834 163.968 132.618 162.832 132.618 161.6C132.618 160.368 132.834 159.24 133.266 158.216C133.714 157.176 134.33 156.272 135.114 155.504C135.914 154.72 136.85 154.12 137.922 153.704C138.994 153.272 140.17 153.056 141.45 153.056C142.714 153.056 143.882 153.272 144.954 153.704C146.026 154.12 146.954 154.712 147.738 155.48C148.538 156.248 149.154 157.152 149.586 158.192C150.034 159.232 150.258 160.368 150.258 161.6C150.258 162.832 150.034 163.968 149.586 165.008C149.154 166.048 148.538 166.952 147.738 167.72C146.954 168.488 146.026 169.088 144.954 169.52C143.882 169.936 142.714 170.144 141.45 170.144ZM146.946 173.336C146.434 173.336 145.938 173.272 145.458 173.144C144.978 173.016 144.49 172.808 143.994 172.52C143.514 172.248 143.018 171.888 142.506 171.44C141.994 170.992 141.434 170.448 140.826 169.808L142.77 169.328C143.266 169.92 143.746 170.408 144.21 170.792C144.69 171.176 145.154 171.456 145.602 171.632C146.066 171.824 146.522 171.92 146.97 171.92C148.218 171.92 149.282 171.408 150.162 170.384L151.026 171.416C149.97 172.696 148.61 173.336 146.946 173.336ZM141.45 168.56C142.458 168.56 143.386 168.392 144.234 168.056C145.098 167.704 145.842 167.208 146.466 166.568C147.106 165.928 147.602 165.192 147.954 164.36C148.306 163.512 148.482 162.592 148.482 161.6C148.482 160.592 148.306 159.672 147.954 158.84C147.602 157.992 147.106 157.256 146.466 156.632C145.842 155.992 145.098 155.504 144.234 155.168C143.386 154.816 142.458 154.64 141.45 154.64C140.442 154.64 139.506 154.816 138.642 155.168C137.778 155.504 137.026 155.992 136.386 156.632C135.762 157.256 135.266 157.992 134.898 158.84C134.546 159.672 134.37 160.592 134.37 161.6C134.37 162.592 134.546 163.512 134.898 164.36C135.266 165.192 135.762 165.928 136.386 166.568C137.026 167.208 137.778 167.704 138.642 168.056C139.506 168.392 140.442 168.56 141.45 168.56ZM157.488 170V153.2H159.264V168.464H168.672V170H157.488Z" fill="#252525"/>
<path d="M163.856 77.343C158.252 77.2048 153.91 77.7594 150.268 79.2833C149.217 79.6989 147.536 79.6993 147.396 81.0155C147.957 81.5701 148.026 82.4707 148.517 83.2327C149.358 84.618 150.828 86.4893 152.159 87.4594C153.63 88.5678 155.101 89.6762 156.641 90.6464C159.373 92.3094 162.455 93.2792 165.116 94.9422C166.658 95.9115 168.198 97.1594 169.739 98.1987C170.509 98.7525 170.999 99.6536 171.98 100V99.7922C171.49 99.1685 171.35 98.2679 170.86 97.575C170.16 96.8821 169.459 96.2584 168.758 95.5655C166.727 92.8636 164.206 90.5078 161.474 88.5678C159.233 87.0434 154.33 84.9649 153.42 82.4012C153.42 82.4012 153.349 82.3321 153.279 82.263C154.82 82.1243 156.641 81.5701 158.112 81.1541C160.494 80.5304 162.665 80.669 165.116 80.0457C166.237 79.7684 167.358 79.422 168.478 79.0756V78.4522C167.218 77.2047 166.307 75.5421 164.976 74.3642C161.404 71.315 157.482 68.3362 153.42 65.8421C151.248 64.4564 148.446 63.5553 146.135 62.3778C145.295 61.9614 143.894 61.754 143.404 61.0612C142.143 59.5368 141.442 57.5278 140.532 55.726C138.502 51.9149 136.54 47.689 134.789 43.6705C133.529 40.9682 132.758 38.2659 131.217 35.7718C124.003 23.9932 116.158 16.8568 104.111 9.85863C101.52 8.4038 98.4385 7.78005 95.1465 7.01808C93.396 6.94853 91.6445 6.81031 89.8935 6.74076C88.7731 6.25567 87.6522 4.9395 86.6714 4.31575C82.68 1.82119 72.3836 -3.5826 69.4419 3.55378C67.5507 8.05738 72.2434 12.4914 73.8542 14.7782C75.0455 16.3717 76.586 18.1729 77.4265 19.9747C77.9169 21.1517 78.0566 22.3997 78.547 23.6467C79.6679 26.6946 80.718 30.0902 82.1891 32.9312C82.9598 34.3861 83.8 35.9105 84.7807 37.2266C85.3409 37.9886 86.3212 38.3354 86.5317 39.5825C85.5514 40.9682 85.4811 43.0468 84.9204 44.779C82.3992 52.6082 83.3799 62.3083 86.9517 68.0589C88.0722 69.7906 90.734 73.6022 94.3059 72.1469C97.4577 70.8999 96.7573 66.9505 97.6677 63.4862C97.8782 62.6542 97.738 62.1005 98.1581 61.5463C98.1585 61.6154 98.1581 61.6849 98.1581 61.6849C99.1388 63.6248 100.119 65.4957 101.03 67.4355C103.201 70.8303 106.983 74.3641 110.135 76.7201C111.816 77.9667 113.147 80.1148 115.248 80.8772V80.669H115.108C114.687 80.0453 114.057 79.7684 113.497 79.2833C112.236 78.0362 110.835 76.5118 109.855 75.1261C106.913 71.2458 104.321 66.9505 102.01 62.516C100.89 60.3683 99.9091 58.0124 98.9987 55.8647C98.5782 55.0328 98.5782 53.7861 97.8778 53.3706C96.8272 54.8945 95.2867 56.2112 94.5159 58.082C93.1859 61.0612 93.0453 64.7333 92.5549 68.544C92.275 68.6135 92.4148 68.544 92.2746 68.6826C90.0337 68.128 89.263 65.8421 88.4224 63.9017C86.3212 58.9826 85.971 51.0838 87.7923 45.4027C88.2827 43.9474 90.3839 39.3747 89.5433 37.989C89.1232 36.6724 87.722 35.9104 86.9517 34.8711C86.0413 33.5545 85.0606 31.8919 84.4305 30.4367C82.7494 26.5568 81.9088 22.261 80.088 18.3807C79.2474 16.579 77.7767 14.7087 76.586 13.046C75.2555 11.1752 73.7844 9.85863 72.7338 7.64138C72.384 6.87941 71.8932 5.63235 72.4534 4.80083C72.5936 4.24663 72.8735 4.03886 73.4342 3.9002C74.3446 3.13779 76.9362 4.10797 77.8466 4.52351C80.4381 5.56236 82.6092 6.53298 84.7807 7.98781C85.761 8.68067 86.8115 9.99728 88.0722 10.3437H89.5433C91.7846 10.8284 94.3059 10.4824 96.4071 11.1057C100.12 12.2832 103.481 14.0158 106.493 15.8866C115.668 21.6372 123.232 29.8133 128.345 39.5825C129.186 41.1756 129.536 42.6313 130.306 44.2939C131.778 47.6891 133.598 51.1534 135.069 54.479C136.54 57.7351 137.941 61.0612 140.042 63.7635C141.093 65.2179 145.295 65.9803 147.186 66.7427C148.587 67.3661 150.758 67.9207 152.019 68.6827C154.4 70.137 156.781 71.8005 159.023 73.394C160.144 74.2251 163.645 75.9577 163.856 77.343Z" fill="#00546B"/>
</svg>
