<svg width="240" height="187" viewBox="0 0 240 187" fill="none" xmlns="http://www.w3.org/2000/svg">
<g clip-path="url(#clip0_17_17)">
<rect x="70" y="-2" width="100" height="100" fill="white"/>
<path d="M96.4875 37.5C85.5 40.3333 78.3333 45.1875 78.3333 50.7292C78.3333 59.5083 96.6875 66.6667 119.375 66.6667C122.458 66.6667 124.625 66.5042 127.5 66.2625" stroke="#50D8FB" stroke-width="4" stroke-linecap="round" stroke-linejoin="round"/>
<path d="M110.987 66.25C109.267 63.7667 107.629 61.5292 106.071 58.75C94.6083 38.3333 91.5375 18.0417 99.2792 13.4458C104.071 10.5417 111.975 14.5 120.004 22.8375" stroke="#50D8FB" stroke-width="4" stroke-linecap="round" stroke-linejoin="round"/>
<path d="M96.7875 64.1125C93.8625 75.3125 94.4542 83.7625 99.1208 86.5917C106.55 91.0917 121.567 78.4333 132.633 58.2417C134.133 55.45 135.479 52.7042 136.667 50" stroke="#50D8FB" stroke-width="4" stroke-linecap="round" stroke-linejoin="round"/>
<path d="M120 77.1667C128.033 85.5 135.904 89.4583 140.742 86.5542C148.45 81.9625 145.412 61.6708 133.938 41.25C132.338 38.4292 130.7 36.2333 129.021 33.75" stroke="#50D8FB" stroke-width="4" stroke-linecap="round" stroke-linejoin="round"/>
<path d="M143.583 62.5C154.467 59.6375 161.667 54.7917 161.667 49.2667C161.667 40.475 143.3 33.3333 120.646 33.3333C117.533 33.3333 115.371 33.4542 112.5 33.6958" stroke="#50D8FB" stroke-width="4" stroke-linecap="round" stroke-linejoin="round"/>
<path d="M103.333 50C104.521 47.25 105.862 44.55 107.367 41.7583C118.396 21.575 133.421 8.88334 140.892 13.4208C145.517 16.25 146.15 24.6958 143.225 35.8917M121.083 50.0625H121.042C121 50.6042 120.542 51.0625 119.958 51.0625C119.679 51.0487 119.416 50.9289 119.223 50.7275C119.029 50.5262 118.92 50.2585 118.917 49.9792C118.917 49.3958 119.375 48.9375 119.917 48.9375H119.875C120.417 48.8958 120.917 49.3958 120.917 49.9375" stroke="#50D8FB" stroke-width="4" stroke-linecap="round" stroke-linejoin="round"/>
</g>
<path d="M16.5417 170V153.2H22.8297C24.2537 153.2 25.4777 153.432 26.5017 153.896C27.5257 154.344 28.3097 155 28.8537 155.864C29.4137 156.712 29.6937 157.744 29.6937 158.96C29.6937 160.144 29.4137 161.168 28.8537 162.032C28.3097 162.88 27.5257 163.536 26.5017 164C25.4777 164.448 24.2537 164.672 22.8297 164.672H17.5257L18.3177 163.856V170H16.5417ZM28.0137 170L23.6937 163.904H25.6137L29.9577 170H28.0137ZM18.3177 164L17.5257 163.16H22.7817C24.4617 163.16 25.7337 162.792 26.5977 162.056C27.4777 161.32 27.9177 160.288 27.9177 158.96C27.9177 157.616 27.4777 156.576 26.5977 155.84C25.7337 155.104 24.4617 154.736 22.7817 154.736H17.5257L18.3177 153.896V164ZM38.7185 160.712H47.5985V162.224H38.7185V160.712ZM38.9105 168.464H49.0145V170H37.1345V153.2H48.6545V154.736H38.9105V168.464ZM53.7503 170L61.4303 153.2H63.1823L70.8623 170H68.9903L61.9343 154.232H62.6543L55.5983 170H53.7503ZM56.7743 165.512L57.3023 164.072H67.0703L67.5983 165.512H56.7743ZM83.9522 170.144C82.6882 170.144 81.5202 169.936 80.4482 169.52C79.3762 169.088 78.4482 168.488 77.6642 167.72C76.8802 166.952 76.2642 166.048 75.8162 165.008C75.3842 163.968 75.1682 162.832 75.1682 161.6C75.1682 160.368 75.3842 159.232 75.8162 158.192C76.2642 157.152 76.8802 156.248 77.6642 155.48C78.4642 154.712 79.4002 154.12 80.4722 153.704C81.5442 153.272 82.7122 153.056 83.9762 153.056C85.1922 153.056 86.3362 153.264 87.4082 153.68C88.4802 154.08 89.3842 154.688 90.1202 155.504L88.9922 156.632C88.3042 155.928 87.5442 155.424 86.7122 155.12C85.8802 154.8 84.9842 154.64 84.0242 154.64C83.0162 154.64 82.0802 154.816 81.2162 155.168C80.3522 155.504 79.6002 155.992 78.9602 156.632C78.3202 157.256 77.8162 157.992 77.4482 158.84C77.0962 159.672 76.9202 160.592 76.9202 161.6C76.9202 162.608 77.0962 163.536 77.4482 164.384C77.8162 165.216 78.3202 165.952 78.9602 166.592C79.6002 167.216 80.3522 167.704 81.2162 168.056C82.0802 168.392 83.0162 168.56 84.0242 168.56C84.9842 168.56 85.8802 168.4 86.7122 168.08C87.5442 167.76 88.3042 167.248 88.9922 166.544L90.1202 167.672C89.3842 168.488 88.4802 169.104 87.4082 169.52C86.3362 169.936 85.1842 170.144 83.9522 170.144ZM100.208 170V154.736H94.3044V153.2H107.888V154.736H101.984V170H100.208ZM123.505 170V153.2H124.969L136.561 167.792H135.793V153.2H137.545V170H136.081L124.513 155.408H125.281V170H123.505ZM143.59 170L151.27 153.2H153.022L160.702 170H158.83L151.774 154.232H152.494L145.438 170H143.59ZM146.614 165.512L147.142 164.072H156.91L157.438 165.512H146.614ZM169.15 170V154.736H163.246V153.2H176.83V154.736H170.926V170H169.15ZM182.916 170V153.2H184.692V170H182.916ZM197.996 170L190.556 153.2H192.476L199.436 169.016H198.38L205.388 153.2H207.188L199.748 170H197.996ZM214.46 160.712H223.34V162.224H214.46V160.712ZM214.652 168.464H224.756V170H212.876V153.2H224.396V154.736H214.652V168.464Z" fill="#252525"/>
<defs>
<clipPath id="clip0_17_17">
<rect x="70" width="100" height="100" rx="15" fill="white"/>
</clipPath>
</defs>
</svg>
