<svg width="240" height="189" viewBox="0 0 240 189" fill="none" xmlns="http://www.w3.org/2000/svg">
<path d="M37.1759 172V156.736H31.2719V155.2H44.8559V156.736H38.9519V172H37.1759ZM54.833 172V165.76L55.241 166.864L48.113 155.2H50.009L56.273 165.448H55.265L61.529 155.2H63.305L56.177 166.864L56.585 165.76V172H54.833ZM68.957 172V155.2H75.245C76.669 155.2 77.893 155.432 78.917 155.896C79.941 156.344 80.725 157 81.269 157.864C81.829 158.712 82.109 159.744 82.109 160.96C82.109 162.144 81.829 163.168 81.269 164.032C80.725 164.88 79.941 165.536 78.917 166C77.893 166.464 76.669 166.696 75.245 166.696H69.941L70.733 165.856V172H68.957ZM70.733 166L69.941 165.136H75.197C76.877 165.136 78.149 164.776 79.013 164.056C79.893 163.32 80.333 162.288 80.333 160.96C80.333 159.616 79.893 158.576 79.013 157.84C78.149 157.104 76.877 156.736 75.197 156.736H69.941L70.733 155.896V166ZM90.7823 162.712H99.6623V164.224H90.7823V162.712ZM90.9743 170.464H101.078V172H89.1983V155.2H100.718V156.736H90.9743V170.464ZM113.134 172.144C111.886 172.144 110.686 171.944 109.534 171.544C108.398 171.128 107.518 170.6 106.894 169.96L107.59 168.592C108.182 169.168 108.974 169.656 109.966 170.056C110.974 170.44 112.03 170.632 113.134 170.632C114.19 170.632 115.046 170.504 115.702 170.248C116.374 169.976 116.862 169.616 117.166 169.168C117.486 168.72 117.646 168.224 117.646 167.68C117.646 167.024 117.454 166.496 117.07 166.096C116.702 165.696 116.214 165.384 115.606 165.16C114.998 164.92 114.326 164.712 113.59 164.536C112.854 164.36 112.118 164.176 111.382 163.984C110.646 163.776 109.966 163.504 109.342 163.168C108.734 162.832 108.238 162.392 107.854 161.848C107.486 161.288 107.302 160.56 107.302 159.664C107.302 158.832 107.518 158.072 107.95 157.384C108.398 156.68 109.078 156.12 109.99 155.704C110.902 155.272 112.07 155.056 113.494 155.056C114.438 155.056 115.374 155.192 116.302 155.464C117.23 155.72 118.03 156.08 118.702 156.544L118.102 157.96C117.382 157.48 116.614 157.128 115.798 156.904C114.998 156.68 114.222 156.568 113.47 156.568C112.462 156.568 111.63 156.704 110.974 156.976C110.318 157.248 109.83 157.616 109.51 158.08C109.206 158.528 109.054 159.04 109.054 159.616C109.054 160.272 109.238 160.8 109.606 161.2C109.99 161.6 110.486 161.912 111.094 162.136C111.718 162.36 112.398 162.56 113.134 162.736C113.87 162.912 114.598 163.104 115.318 163.312C116.054 163.52 116.726 163.792 117.334 164.128C117.958 164.448 118.454 164.88 118.822 165.424C119.206 165.968 119.398 166.68 119.398 167.56C119.398 168.376 119.174 169.136 118.726 169.84C118.278 170.528 117.59 171.088 116.662 171.52C115.75 171.936 114.574 172.144 113.134 172.144ZM133.813 172.144C132.549 172.144 131.381 171.936 130.309 171.52C129.237 171.088 128.309 170.488 127.525 169.72C126.741 168.952 126.125 168.048 125.677 167.008C125.245 165.968 125.029 164.832 125.029 163.6C125.029 162.368 125.245 161.232 125.677 160.192C126.125 159.152 126.741 158.248 127.525 157.48C128.325 156.712 129.261 156.12 130.333 155.704C131.405 155.272 132.573 155.056 133.837 155.056C135.053 155.056 136.197 155.264 137.269 155.68C138.341 156.08 139.245 156.688 139.981 157.504L138.853 158.632C138.165 157.928 137.405 157.424 136.573 157.12C135.741 156.8 134.845 156.64 133.885 156.64C132.877 156.64 131.941 156.816 131.077 157.168C130.213 157.504 129.461 157.992 128.821 158.632C128.181 159.256 127.677 159.992 127.309 160.84C126.957 161.672 126.781 162.592 126.781 163.6C126.781 164.608 126.957 165.536 127.309 166.384C127.677 167.216 128.181 167.952 128.821 168.592C129.461 169.216 130.213 169.704 131.077 170.056C131.941 170.392 132.877 170.56 133.885 170.56C134.845 170.56 135.741 170.4 136.573 170.08C137.405 169.76 138.165 169.248 138.853 168.544L139.981 169.672C139.245 170.488 138.341 171.104 137.269 171.52C136.197 171.936 135.045 172.144 133.813 172.144ZM147.016 172V155.2H153.304C154.728 155.2 155.952 155.432 156.976 155.896C158 156.344 158.784 157 159.328 157.864C159.888 158.712 160.168 159.744 160.168 160.96C160.168 162.144 159.888 163.168 159.328 164.032C158.784 164.88 158 165.536 156.976 166C155.952 166.448 154.728 166.672 153.304 166.672H148L148.792 165.856V172H147.016ZM158.488 172L154.168 165.904H156.088L160.432 172H158.488ZM148.792 166L148 165.16H153.256C154.936 165.16 156.208 164.792 157.072 164.056C157.952 163.32 158.392 162.288 158.392 160.96C158.392 159.616 157.952 158.576 157.072 157.84C156.208 157.104 154.936 156.736 153.256 156.736H148L148.792 155.896V166ZM167.609 172V155.2H169.385V172H167.609ZM178.1 172V155.2H184.388C185.812 155.2 187.036 155.432 188.06 155.896C189.084 156.344 189.868 157 190.412 157.864C190.972 158.712 191.252 159.744 191.252 160.96C191.252 162.144 190.972 163.168 190.412 164.032C189.868 164.88 189.084 165.536 188.06 166C187.036 166.464 185.812 166.696 184.388 166.696H179.084L179.876 165.856V172H178.1ZM179.876 166L179.084 165.136H184.34C186.02 165.136 187.292 164.776 188.156 164.056C189.036 163.32 189.476 162.288 189.476 160.96C189.476 159.616 189.036 158.576 188.156 157.84C187.292 157.104 186.02 156.736 184.34 156.736H179.084L179.876 155.896V166ZM201.043 172V156.736H195.139V155.2H208.723V156.736H202.819V172H201.043Z" fill="#252525"/>
<path d="M70 50V100H120H170V50V0H120H70V50Z" fill="#007ACC"/>
<path d="M92.1132 50.3317L92.0815 54.427L98.5894 54.427H105.097V72.919V91.4111H109.701H114.304V72.919V54.427H120.812H127.32V50.4111C127.32 48.1889 127.272 46.3317 127.208 46.2841C127.161 46.2206 119.24 46.1889 109.637 46.2048L92.1609 46.2524L92.1132 50.3317Z" fill="white"/>
<path d="M150.691 46.1362C153.23 46.7711 155.167 47.8981 156.945 49.7393C157.865 50.7235 159.23 52.5171 159.341 52.9457C159.373 53.0727 155.024 55.9933 152.389 57.6282C152.294 57.6917 151.913 57.279 151.484 56.6441C150.198 54.7711 148.849 53.9616 146.786 53.8187C143.754 53.6124 141.802 55.1997 141.818 57.8505C141.818 58.6282 141.929 59.0886 142.246 59.7235C142.913 61.1044 144.151 61.9298 148.04 63.6124C155.198 66.6917 158.262 68.7235 160.167 71.6124C162.294 74.8346 162.77 79.9774 161.325 83.8028C159.738 87.9616 155.802 90.787 150.262 91.7235C148.548 92.0251 144.484 91.9774 142.643 91.6441C138.627 90.9298 134.818 88.9457 132.468 86.3425C131.548 85.3266 129.754 82.6759 129.865 82.4854C129.913 82.4219 130.325 82.1679 130.786 81.8981C131.23 81.6441 132.913 80.6759 134.5 79.7552L137.373 78.0885L137.976 78.9774C138.818 80.2631 140.659 82.0251 141.77 82.6124C144.96 84.2949 149.341 84.0568 151.5 82.1203C152.421 81.279 152.802 80.406 152.802 79.1203C152.802 77.9616 152.659 77.4536 152.056 76.5806C151.278 75.4695 149.691 74.533 145.183 72.5806C140.024 70.3584 137.802 68.9774 135.77 66.787C134.595 65.5171 133.484 63.4854 133.024 61.787C132.643 60.3743 132.548 56.8346 132.849 55.406C133.913 50.4219 137.675 46.9457 143.103 45.9139C144.865 45.5806 148.96 45.7076 150.691 46.1362Z" fill="white"/>
</svg>
